<svg xmlns="http://www.w3.org/2000/svg" viewBox="0 0 64 64">
  <defs>
    <linearGradient id="g" x1="0" y1="0" x2="1" y2="1">
      <stop offset="0" stop-color="#4f46e5"/>
      <stop offset="1" stop-color="#06b6d4"/>
    </linearGradient>
  </defs>
  <rect x="6" y="6" width="52" height="52" rx="16" fill="url(#g)"/>
  <path d="M18 40c0-12 8-20 20-20 6 0 10 2 12 5-4-2-8-3-12-3-10 0-16 6-16 15 0 3 1 6 3 8-4-2-7-7-7-13z" fill="rgba(255,255,255,.85)"/>
  <path d="M44 44a2 2 0 0 1-2-2V30a2 2 0 0 1 4 0v12a2 2 0 0 1-2 2z" fill="rgba(255,255,255,.92)"/>
  <path d="M28 46a2 2 0 0 1-2-2V34a2 2 0 0 1 4 0v10a2 2 0 0 1-2 2z" fill="rgba(255,255,255,.92)"/>
</svg>
